<svg xmlns="http://www.w3.org/2000/svg" viewBox="0 0 256 256">
  <g>
    <g>
      <g fill="#2e0826">
        <path d="M132.681 190.812c-12.84-12.87-19.01-31.91-16.74-49.89-18.87-10.85-43.52-6.75-57.31 11-5.47 7.04-9.49 15.3-12.68 24.24 16.37 28.82 47.34 48.26 82.86 48.26 20.06 0 38.66-6.2 54.01-16.79-18.07 2.33-37.23-3.89-50.13-16.83l-.01.01zm31.27-150.16c1.64 1.54 3.18 3.18 4.62 4.91 13.72 16.5 17.42 40.72 9.25 60.56-6.51 15.81-20.33 28.28-36.48 33.73 4.48 20.72 23.21 36.14 45.18 35.21 9.75-.41 19.5-3.1 29.24-6.98 5.32-11.88 8.28-25.04 8.28-38.89 0-40.19-24.89-74.56-60.1-88.54h.01zm-21.43 21.87c-4.88-10.41-12.67-19.6-21.73-28.23-48.85 4.07-87.22 45-87.22 94.9 0 1.07.02 2.13.06 3.2 9.31-17.61 27.91-30.1 47.8-31.72 16.91-1.37 34.16 5.16 46.34 16.89 17.15-12.19 24.02-35.25 14.74-55.05l.01.01z"/>
      </g>
      <g>
        <path fill="#ff7b7b" d="M131.391 197.922c-12.84-12.87-19.01-31.91-16.74-49.89-18.87-10.85-43.52-6.75-57.31 11-5.47 7.04-9.49 15.3-12.68 24.24 16.37 28.82 47.34 48.26 82.86 48.26 20.06 0 38.66-6.2 54.01-16.79-18.07 2.33-37.23-3.89-50.13-16.83l-.01.01z"/>
        <path fill="#bdffd8" d="M170.451 37.272c1.64 1.54 3.18 3.18 4.62 4.91 13.72 16.5 17.42 40.72 9.25 60.56-6.51 15.81-20.33 28.28-36.48 33.73 4.48 20.72 23.21 36.14 45.18 35.21 9.75-.41 19.5-3.1 29.24-6.98 5.32-11.88 8.28-25.04 8.28-38.89 0-40.19-24.89-74.56-60.1-88.54h.01z"/>
        <path fill="#fcd585" d="M136.011 56.772c-4.88-10.41-12.67-19.6-21.73-28.23-48.85 4.07-87.22 45-87.22 94.9 0 1.07.02 2.13.06 3.2 9.31-17.61 27.91-30.1 47.8-31.72 16.91-1.37 34.16 5.16 46.34 16.89 17.15-12.19 24.02-35.25 14.74-55.05l.01.01z"/>
      </g>
      <g>
        <path fill="#9b1542" d="M66.791 186.182c-1.59 6.24-2.41 12.8-2.71 19.58 24.13 22.73 59.45 32.2 93.39 21.75 19.17-5.9 35.12-17.3 46.68-31.94-9.3 4.23-19.71 5.98-29.9 5.21-13.01 8.66-28.64 13.72-45.44 13.72-24.77 0-46.96-10.98-62.01-28.32h-.01z"/>
        <path fill="#10867b" d="M210.921 132.392c0 5.38-.53 10.64-1.52 15.73 6.61-3.21 12.89-7.47 18.97-12.36 1.59-12.91.55-26.37-3.53-39.61-11.82-38.41-45.73-63.94-83.49-66.94 2.02.99 3.98 2.1 5.86 3.34 10.49 6.85 18.48 17.21 22.93 28.91 24.38 14.24 40.77 40.67 40.77 70.94l.01-.01z"/>
        <path fill="#fe7146" d="M108.811 52.742c-6.82-6.02-14.93-10.97-23.7-15.34-45.49 18.26-70.12 68.67-55.44 116.36.31 1.02.65 2.03 1 3.04 2.2-11.59 8.05-22.43 16.31-30.88 2.78-35.56 28.18-64.76 61.84-73.18h-.01z"/>
        <path fill="#e43850" d="M120.621 151.482c-21.23-4.82-43.58 6.35-51.54 27.38-.9 2.38-1.65 4.83-2.28 7.32 15.06 17.34 37.24 28.32 62.01 28.32 16.81 0 32.43-5.06 45.44-13.72-8-.61-15.86-2.78-22.96-6.54-16.05-8.52-27.55-24.9-30.67-42.76zm-10.46 19.19c-3.25 1-6.69-.82-7.69-4.07-1-3.25.82-6.69 4.07-7.69 3.25-1 6.69.82 7.69 4.07 1 3.25-.82 6.69-4.07 7.69z"/>
        <path fill="#56de92" d="M173.881 87.702c-1.57 17.02-11.11 33-24.94 42.97 10.38 18.48 32.82 27.72 53.54 20.36 2.35-.83 4.65-1.81 6.92-2.91.99-5.09 1.52-10.35 1.52-15.73 0-30.27-16.39-56.7-40.77-70.94 3.17 8.34 4.55 17.35 3.73 26.25zm6.85 40.56c1 3.25-.82 6.69-4.07 7.69s-6.69-.82-7.69-4.07c-1-3.25.82-6.69 4.07-7.69 3.25-1 6.69.82 7.69 4.07z"/>
        <path fill="#ff972f" d="M67.021 112.412c15.76-6.29 34.17-5.12 49.26 2.51 12.81-16.69 12.59-40.76-2.1-56.95-1.67-1.84-3.48-3.58-5.37-5.24-33.66 8.42-59.07 37.62-61.84 73.18 5.68-5.81 12.5-10.49 20.05-13.5zm41.15-27.34c3.25-1 6.69.82 7.69 4.07 1 3.25-.82 6.69-4.07 7.69s-6.69-.82-7.69-4.07c-1-3.25.82-6.69 4.07-7.69z"/>
      </g>
      <path fill="#fff" stroke="#2e0826" stroke-miterlimit="10" stroke-width="4.59" d="M224.461 164.332c-12.62 5.84-25.27 10.2-37.93 10.74-21.97.93-40.7-14.5-45.18-35.21 16.15-5.46 29.97-17.93 36.48-33.73 8.17-19.84 4.47-44.06-9.25-60.56-11.58-13.93-29.88-21.83-47.93-21.3-3.8.11-5.47 4.84-2.66 7.4 10.26 9.39 19.16 19.38 24.54 30.85 9.28 19.79 2.41 42.86-14.74 55.05-12.18-11.74-29.44-18.27-46.34-16.89-21.38 1.74-41.28 16.04-49.74 35.75-7.14 16.64-5.87 36.53 2.8 52.37 1.83 3.33 6.79 2.67 7.8-.99 3.71-13.41 8.56-25.87 16.34-35.88 13.8-17.75 38.44-21.85 57.31-11-2.27 17.98 3.9 37.02 16.74 49.89 15.15 15.19 38.92 21.12 59.44 14.83 17.32-5.31 31.67-19.14 38.14-36 1.36-3.55-2.35-6.91-5.8-5.31l-.02-.01z"/>
    </g>
  </g>
</svg>
